<svg xmlns="http://www.w3.org/2000/svg" xmlns:xlink="http://www.w3.org/1999/xlink" width="560" zoomAndPan="magnify" viewBox="0 0 420 359.999987" height="480" preserveAspectRatio="xMidYMid meet" version="1.0"><defs><g/><clipPath id="0cccaee482"><path d="M 47 14 L 373.484375 14 L 373.484375 346 L 47 346 Z M 47 14 " clip-rule="nonzero"/></clipPath></defs><g clip-path="url(#0cccaee482)"><path fill="#38c681" d="M 239.28125 245.972656 C 239.28125 272.410156 239.28125 298.847656 239.28125 325.292969 L 222.832031 341.78125 C 222.21875 342.390625 221.554688 342.933594 220.839844 343.414062 C 220.121094 343.890625 219.363281 344.292969 218.566406 344.621094 C 217.769531 344.953125 216.949219 345.199219 216.105469 345.367188 C 215.257812 345.535156 214.40625 345.621094 213.542969 345.621094 C 212.679688 345.621094 211.828125 345.535156 210.980469 345.367188 C 210.136719 345.199219 209.316406 344.953125 208.519531 344.621094 C 207.722656 344.292969 206.964844 343.890625 206.246094 343.414062 C 205.53125 342.933594 204.867188 342.390625 204.253906 341.78125 L 193.25 330.769531 L 193.25 199.941406 L 364.628906 199.941406 L 318.605469 245.972656 L 239.28125 245.972656 M 222.832031 18.179688 L 373.292969 168.640625 L 193.257812 168.640625 L 193.257812 122.617188 L 262.171875 122.617188 L 213.550781 73.988281 L 107.574219 179.964844 L 161.957031 234.339844 L 161.957031 299.433594 L 51.765625 189.246094 C 51.15625 188.636719 50.613281 187.972656 50.136719 187.253906 C 49.660156 186.539062 49.253906 185.78125 48.925781 184.984375 C 48.597656 184.1875 48.347656 183.367188 48.179688 182.523438 C 48.011719 181.675781 47.929688 180.824219 47.929688 179.960938 C 47.929688 179.097656 48.011719 178.246094 48.179688 177.398438 C 48.347656 176.554688 48.597656 175.734375 48.925781 174.9375 C 49.253906 174.140625 49.660156 173.382812 50.136719 172.667969 C 50.613281 171.949219 51.15625 171.285156 51.765625 170.675781 L 204.253906 18.179688 C 204.867188 17.570312 205.527344 17.027344 206.246094 16.550781 C 206.964844 16.070312 207.71875 15.667969 208.515625 15.335938 C 209.3125 15.007812 210.136719 14.757812 210.980469 14.589844 C 211.828125 14.421875 212.679688 14.339844 213.542969 14.339844 C 214.40625 14.339844 215.257812 14.421875 216.105469 14.589844 C 216.949219 14.757812 217.773438 15.007812 218.570312 15.335938 C 219.367188 15.667969 220.121094 16.070312 220.839844 16.550781 C 221.558594 17.027344 222.222656 17.570312 222.832031 18.179688 Z M 222.832031 18.179688 " fill-opacity="1" fill-rule="evenodd"/></g><g fill="#38c681" fill-opacity="1"><g transform="translate(195.33312, 192.000873)"><g><path d="M 5.390625 -12.691406 L 11.351562 -12.691406 L 11.351562 -16.742188 L 0.9375 -16.742188 L 0.9375 0 L 5.390625 0 L 5.390625 -6.394531 L 11.351562 -6.394531 L 11.351562 -10.347656 L 5.390625 -10.347656 Z M 5.390625 -12.691406 "/></g></g></g><g fill="#38c681" fill-opacity="1"><g transform="translate(212.730675, 192.000873)"><g><path d="M 0.9375 -16.742188 L 0.9375 -7.332031 C 0.9375 -2.511719 3.113281 0.234375 6.898438 0.234375 C 10.714844 0.234375 12.859375 -2.511719 12.859375 -7.332031 L 12.859375 -16.742188 L 8.40625 -16.742188 L 8.40625 -7.332031 C 8.40625 -5.324219 7.867188 -4.21875 6.929688 -4.21875 C 5.960938 -4.21875 5.390625 -5.324219 5.390625 -7.332031 L 5.390625 -16.742188 Z M 0.9375 -16.742188 "/></g></g></g><g fill="#38c681" fill-opacity="1"><g transform="translate(231.668168, 192.000873)"><g><path d="M 0.9375 0 L 5.390625 0 L 5.390625 -7.835938 L 9.140625 0 L 12.859375 0 L 12.859375 -16.742188 L 8.40625 -16.742188 L 8.40625 -8.941406 L 4.65625 -16.742188 L 0.9375 -16.742188 Z M 0.9375 0 "/></g></g></g><g fill="#38c681" fill-opacity="1"><g transform="translate(250.60566, 192.000873)"><g><path d="M 6.160156 -16.742188 L 0.9375 -16.742188 L 0.9375 0 L 6.160156 0 C 10.480469 0 12.859375 -3.011719 12.859375 -8.371094 C 12.859375 -13.730469 10.480469 -16.742188 6.160156 -16.742188 Z M 6.597656 -4.453125 L 5.390625 -4.453125 L 5.390625 -12.324219 L 6.597656 -12.324219 C 7.835938 -12.324219 8.503906 -10.882812 8.503906 -8.371094 C 8.503906 -5.859375 7.835938 -4.453125 6.597656 -4.453125 Z M 6.597656 -4.453125 "/></g></g></g><g fill="#38c681" fill-opacity="1"><g transform="translate(278.404081, 192.000873)"><g><path d="M 8.671875 -6.898438 L 12.957031 -6.128906 C 12.253906 -2.042969 10.113281 0.234375 6.964844 0.234375 C 2.980469 0.234375 0.769531 -2.878906 0.769531 -8.371094 C 0.769531 -13.863281 2.980469 -16.976562 6.964844 -16.976562 C 10.113281 -16.976562 12.289062 -14.699219 12.957031 -10.648438 L 8.671875 -9.84375 C 8.4375 -11.585938 7.835938 -12.523438 6.964844 -12.523438 C 5.792969 -12.523438 5.125 -11.050781 5.125 -8.371094 C 5.125 -5.691406 5.792969 -4.21875 6.964844 -4.21875 C 7.867188 -4.21875 8.503906 -5.191406 8.671875 -6.898438 Z M 8.671875 -6.898438 "/></g></g></g><g fill="#38c681" fill-opacity="1"><g transform="translate(297.241144, 192.000873)"><g><path d="M 12.859375 -16.742188 L 8.40625 -16.742188 L 8.40625 -10.582031 L 5.390625 -10.582031 L 5.390625 -16.742188 L 0.9375 -16.742188 L 0.9375 0 L 5.390625 0 L 5.390625 -6.160156 L 8.40625 -6.160156 L 8.40625 0 L 12.859375 0 Z M 12.859375 -16.742188 "/></g></g></g><g fill="#38c681" fill-opacity="1"><g transform="translate(316.178636, 192.000873)"><g><path d="M 9.742188 -2.410156 L 10.445312 0 L 14.765625 0 L 9.777344 -16.742188 L 5.257812 -16.742188 L 0.199219 0 L 4.554688 0 L 5.222656 -2.410156 Z M 8.605469 -6.328125 L 6.429688 -6.328125 L 7.5 -11.148438 Z M 8.605469 -6.328125 "/></g></g></g><g fill="#38c681" fill-opacity="1"><g transform="translate(336.254347, 192.000873)"><g><path d="M 5.390625 -16.742188 L 0.9375 -16.742188 L 0.9375 0 L 5.390625 0 Z M 5.390625 -16.742188 "/></g></g></g><g fill="#38c681" fill-opacity="1"><g transform="translate(347.693002, 192.000873)"><g><path d="M 0.9375 0 L 5.390625 0 L 5.390625 -7.835938 L 9.140625 0 L 12.859375 0 L 12.859375 -16.742188 L 8.40625 -16.742188 L 8.40625 -8.941406 L 4.65625 -16.742188 L 0.9375 -16.742188 Z M 0.9375 0 "/></g></g></g></svg>