<svg xmlns="http://www.w3.org/2000/svg" xmlns:xlink="http://www.w3.org/1999/xlink" width="560" zoomAndPan="magnify" viewBox="0 0 420 359.999987" height="480" preserveAspectRatio="xMidYMid meet" version="1.0"><defs><clipPath id="013d5b89ce"><path d="M 164 149 L 312.75 149 L 312.75 241 L 164 241 Z M 164 149 " clip-rule="nonzero"/></clipPath><clipPath id="82bd0394f1"><path d="M 126 93.128906 L 257 93.128906 L 257 250.628906 L 126 250.628906 Z M 126 93.128906 " clip-rule="nonzero"/></clipPath><clipPath id="d5689336f9"><path d="M 203 201 L 249 201 L 249 225 L 203 225 Z M 203 201 " clip-rule="nonzero"/></clipPath><clipPath id="172bb84f1e"><path d="M 201.558594 211.273438 L 246.511719 199.371094 L 250.351562 213.875 L 205.398438 225.773438 Z M 201.558594 211.273438 " clip-rule="nonzero"/></clipPath><clipPath id="bad4d742b6"><path d="M 201.558594 211.273438 L 246.511719 199.371094 L 250.351562 213.875 L 205.398438 225.773438 Z M 201.558594 211.273438 " clip-rule="nonzero"/></clipPath></defs><g clip-path="url(#013d5b89ce)"><path fill="#44c285" d="M 312.8125 177.4375 C 311.847656 181.332031 311.117188 184.496094 310.285156 187.636719 C 308.730469 193.527344 307.171875 199.417969 305.609375 205.3125 L 167.253906 240.546875 C 166.316406 240.640625 165.363281 240.574219 164.421875 240.597656 C 164.484375 239.648438 164.382812 238.65625 164.617188 237.757812 C 165.898438 232.753906 167.257812 227.785156 168.585938 222.789062 C 172.507812 208.003906 176.46875 193.210938 180.300781 178.394531 C 180.855469 176.265625 181.960938 175.296875 183.996094 174.789062 C 203.933594 169.796875 223.851562 164.746094 243.773438 159.710938 C 256.351562 156.527344 268.929688 153.335938 281.507812 150.160156 C 284.5625 149.386719 284.992188 149.742188 284.226562 152.71875 C 282.277344 160.304688 280.316406 167.890625 278.144531 175.414062 C 277.832031 176.5 276.476562 177.796875 275.367188 178.085938 C 263.652344 181.125 251.878906 183.941406 240.140625 186.886719 C 227.796875 189.988281 215.476562 193.148438 203.152344 196.34375 C 202.519531 196.503906 201.722656 197.175781 201.542969 197.773438 C 200.773438 200.308594 200.210938 202.898438 199.414062 206.09375 C 237.308594 196.515625 274.6875 187.070312 312.8125 177.4375 Z M 312.8125 177.4375 " fill-opacity="1" fill-rule="nonzero"/></g><g clip-path="url(#82bd0394f1)"><path fill="#44c285" d="M 256.863281 120.992188 C 256.113281 124.230469 255.617188 126.613281 255 128.972656 C 253.519531 134.660156 251.933594 140.316406 250.480469 146.007812 C 249.921875 148.175781 248.902344 149.398438 246.523438 149.984375 C 227.089844 154.789062 207.695312 159.753906 188.28125 164.671875 C 184.226562 165.699219 180.179688 166.722656 176.113281 167.675781 C 174.699219 168.007812 173.957031 168.539062 173.542969 170.15625 C 167.378906 193.933594 161.085938 217.679688 154.859375 241.441406 C 154.488281 242.851562 153.855469 243.746094 152.660156 244.265625 L 152.648438 244.269531 C 152.371094 244.390625 152.066406 244.488281 151.722656 244.570312 C 148.96875 245.234375 146.214844 245.917969 143.464844 246.601562 L 140.875 247.261719 C 137.148438 248.207031 133.421875 249.167969 129.691406 250.117188 C 126.59375 250.902344 126.023438 250.429688 126.835938 247.390625 C 129.007812 239.226562 131.34375 231.097656 133.5 222.921875 C 136.292969 212.335938 138.9375 201.707031 141.722656 191.125 C 145.902344 175.210938 150.152344 159.320312 154.371094 143.414062 C 157.011719 133.441406 159.757812 123.492188 162.246094 113.472656 C 162.925781 110.722656 164.0625 109.296875 166.949219 108.589844 C 186.738281 103.714844 206.480469 98.640625 226.246094 93.640625 C 226.910156 93.472656 227.609375 93.414062 228.921875 93.199219 C 228.546875 94.980469 228.332031 96.261719 228.003906 97.519531 C 226.179688 104.496094 224.285156 111.457031 222.523438 118.449219 C 222.050781 120.308594 221.132812 121.242188 219.21875 121.707031 C 207.976562 124.441406 196.757812 127.273438 185.558594 130.171875 C 184.796875 130.371094 183.929688 131.332031 183.664062 132.121094 C 182.894531 134.460938 182.410156 136.894531 181.621094 140.046875 C 206.820312 133.664062 231.4375 127.433594 256.863281 120.992188 Z M 256.863281 120.992188 " fill-opacity="1" fill-rule="nonzero"/></g><path fill="#44c285" d="M 152.640625 244.269531 C 152.359375 244.390625 152.054688 244.488281 151.710938 244.570312 C 148.957031 245.234375 146.203125 245.917969 143.457031 246.601562 Z M 152.640625 244.269531 " fill-opacity="1" fill-rule="nonzero"/><g clip-path="url(#d5689336f9)"><g clip-path="url(#172bb84f1e)"><g clip-path="url(#bad4d742b6)"><path fill="#44c285" d="M 243.195312 216.050781 L 212.886719 224.074219 C 208.828125 225.148438 204.671875 222.730469 203.597656 218.675781 C 202.523438 214.621094 204.941406 210.460938 208.996094 209.386719 L 239.308594 201.359375 C 243.363281 200.285156 247.523438 202.707031 248.597656 206.761719 C 249.671875 210.816406 247.253906 214.976562 243.195312 216.050781 Z M 243.195312 216.050781 " fill-opacity="1" fill-rule="nonzero"/><path fill="#44c285" d="M 243.214844 216.121094 L 212.90625 224.148438 C 208.8125 225.230469 204.609375 222.785156 203.523438 218.695312 C 202.441406 214.601562 204.886719 210.398438 208.976562 209.316406 L 239.289062 201.289062 C 243.378906 200.207031 247.585938 202.648438 248.667969 206.742188 C 249.75 210.832031 247.308594 215.039062 243.214844 216.121094 Z M 209.015625 209.457031 C 205.003906 210.519531 202.605469 214.644531 203.667969 218.65625 C 204.730469 222.667969 208.855469 225.066406 212.867188 224.003906 L 243.175781 215.980469 C 247.191406 214.917969 249.585938 210.792969 248.523438 206.78125 C 247.460938 202.765625 243.339844 200.371094 239.324219 201.433594 Z M 209.015625 209.457031 " fill-opacity="1" fill-rule="nonzero"/></g></g></g></svg>